# Blender 4.3.2
# www.blender.org
o Icosphere
v 0.000000 1.000000 -1.000000
v -0.587786 0.809017 -1.000000
v 0.951058 0.309013 -1.000000
v 0.587786 0.809017 -1.000000
v 0.587786 -0.809017 -1.000000
v 0.951058 -0.309013 -1.000000
v 0.276388 -0.850649 1.447220
v -0.723607 -0.525725 1.447220
v -0.723607 0.525725 1.447220
v 0.276388 0.850649 1.447220
v 0.894426 0.000000 1.447216
v 0.000000 0.000000 2.000000
v -0.587786 -0.809017 -1.000000
v -0.000000 -1.000000 -1.000000
v -0.951058 0.309013 -1.000000
v -0.951058 -0.309013 -1.000000
v -0.000000 0.000000 -2.000000
v -0.894426 0.000000 -1.447215
v -0.276388 0.850649 -1.447220
v 0.723607 0.525725 -1.447219
v 0.723607 -0.525725 -1.447220
v -0.276388 -0.850649 -1.447220
v 0.951058 -0.309013 1.000000
v 0.951058 0.309013 1.000000
v 0.000000 -1.000000 1.000000
v 0.587786 -0.809017 1.000000
v -0.951058 -0.309013 1.000000
v -0.587786 -0.809017 1.000000
v -0.587786 0.809017 1.000000
v -0.951058 0.309013 1.000000
v 0.587786 0.809017 1.000000
v 0.000000 1.000000 1.000000
v 0.688189 -0.499997 1.525736
v -0.262869 -0.809012 1.525738
v -0.850648 0.000000 1.525736
v -0.262869 0.809012 1.525738
v 0.688189 0.499997 1.525736
v 0.162456 -0.499995 1.850654
v 0.525730 0.000000 1.850652
v -0.425323 -0.309011 1.850654
v -0.425323 0.309011 1.850654
v 0.162456 0.499995 1.850654
v -0.688189 -0.499997 -1.525736
v 0.262869 -0.809012 -1.525738
v 0.850648 0.000000 -1.525736
v 0.262869 0.809012 -1.525738
v -0.688189 0.499997 -1.525736
v -0.162456 -0.499995 -1.850654
v -0.525730 0.000000 -1.850652
v 0.425323 -0.309011 -1.850654
v 0.425323 0.309012 -1.850654
v -0.162456 0.499995 -1.850654
v 0.587786 0.809017 0.000000
v 0.951058 0.309013 0.000000
v 0.951058 -0.309013 -0.000000
v 0.587786 -0.809017 -0.000000
v -0.000000 -1.000000 -0.000000
v -0.587786 -0.809017 -0.000000
v -0.951058 -0.309013 0.000000
v -0.951058 0.309013 0.000000
v -0.587786 0.809017 0.000000
v 0.000000 1.000000 0.000000
s 0
f 14 13 22
f 13 16 43
f 16 15 18
f 6 5 21
f 4 3 20
f 13 43 22
f 6 21 45
f 1 46 19
f 48 43 49
f 51 45 50
f 14 22 44
f 3 6 45
f 2 19 47
f 48 49 17
f 51 50 17
f 7 33 38
f 8 34 40
f 9 35 41
f 10 36 42
f 11 37 39
f 39 42 12
f 39 37 42
f 37 10 42
f 42 41 12
f 42 36 41
f 36 9 41
f 41 40 12
f 41 35 40
f 35 8 40
f 40 38 12
f 40 34 38
f 34 7 38
f 38 39 12
f 38 33 39
f 33 11 39
f 24 37 11
f 24 31 37
f 31 10 37
f 32 36 10
f 32 29 36
f 29 9 36
f 30 35 9
f 30 27 35
f 27 8 35
f 28 34 8
f 28 25 34
f 25 7 34
f 26 33 7
f 26 23 33
f 23 11 33
f 31 32 10
f 22 43 48
f 50 44 48
f 29 30 9
f 21 44 50
f 15 47 18
f 27 28 8
f 20 45 51
f 4 20 46
f 25 26 7
f 49 47 52
f 5 14 44
f 23 24 11
f 49 52 17
f 46 20 51
f 45 21 50
f 18 47 49
f 44 22 48
f 43 18 49
f 19 46 52
f 15 2 47
f 1 4 46
f 52 46 51
f 3 45 20
f 50 48 17
f 47 19 52
f 2 1 19
f 5 44 21
f 52 51 17
f 16 18 43
f 54 4 53
f 55 3 54
f 56 6 55
f 57 5 56
f 57 13 14
f 58 16 13
f 60 16 59
f 61 15 60
f 62 2 61
f 53 1 62
f 31 62 32
f 32 61 29
f 29 60 30
f 30 59 27
f 28 59 58
f 28 57 25
f 25 56 26
f 26 55 23
f 23 54 24
f 24 53 31
f 54 3 4
f 55 6 3
f 56 5 6
f 57 14 5
f 57 58 13
f 58 59 16
f 60 15 16
f 61 2 15
f 62 1 2
f 53 4 1
f 31 53 62
f 32 62 61
f 29 61 60
f 30 60 59
f 28 27 59
f 28 58 57
f 25 57 56
f 26 56 55
f 23 55 54
f 24 54 53
